<svg xmlns="http://www.w3.org/2000/svg" width="314" height="128" viewBox="0 0 314 128" role="img" aria-label="GitHub: github.com/tafsirulislamapon">
<title>GitHub: github.com/tafsirulislamapon</title>
<rect x="1" y="1" width="312" height="126" rx="20" fill="#F8F9FB" stroke="#E3E8F0" stroke-width="2"/>
<rect x="30" y="28" width="30" height="3" rx="1.5" fill="#2F5FA7"/><path d="M40.1 70.4L40.1 70.4Q38.2 70.4 36.6 69.7Q34.9 69 33.7 67.8Q32.5 66.6 31.8 65Q31.1 63.3 31.1 61.4L31.1 61.4Q31.1 59.5 31.8 57.8Q32.5 56.2 33.7 55Q34.9 53.8 36.6 53.1Q38.2 52.4 40.1 52.4L40.1 52.4Q42 52.4 43.7 53.1Q45.4 53.8 46.5 55.1L46.5 55.1L44.7 56.9Q44.1 56.2 43.4 55.8Q42.7 55.4 41.9 55.2Q41 54.9 40.1 54.9L40.1 54.9Q38.8 54.9 37.6 55.4Q36.5 55.8 35.6 56.7Q34.7 57.5 34.2 58.7Q33.7 59.9 33.7 61.4L33.7 61.4Q33.7 62.9 34.2 64.1Q34.8 65.3 35.6 66.1Q36.5 67 37.7 67.4Q38.8 67.9 40.1 67.9L40.1 67.9Q41.3 67.9 42.3 67.6Q43.3 67.2 44.1 66.6Q44.8 66 45.3 65.1Q45.8 64.2 45.9 63L45.9 63L40 63L40 60.7L48.4 60.7Q48.4 61 48.5 61.4Q48.5 61.7 48.5 62.1L48.5 62.1L48.5 62.1L48.5 62.1L48.5 62.1Q48.5 64 47.9 65.5Q47.3 67 46.1 68.1Q45 69.2 43.5 69.8Q41.9 70.4 40.1 70.4ZM53.3 70L50.7 70L50.7 57.8L53.3 57.8L53.3 70ZM52 56L52 56Q51.3 56 50.7 55.4Q50.2 54.9 50.2 54.2L50.2 54.2Q50.2 53.5 50.7 53Q51.3 52.5 52 52.5L52 52.5Q52.7 52.5 53.2 53Q53.7 53.5 53.7 54.2L53.7 54.2Q53.7 54.9 53.2 55.4Q52.7 56 52 56ZM57.4 60L55.1 60L55.1 57.8L57.4 57.8L57.4 60ZM61 70.2L61 70.2Q59.3 70.2 58.2 69.2Q57.2 68.2 57.2 66.4L57.2 66.4L57.2 54.3L59.8 54.3L59.8 65.9Q59.8 66.9 60.2 67.3Q60.6 67.8 61.4 67.8L61.4 67.8Q61.8 67.8 62.2 67.7Q62.5 67.6 62.9 67.3L62.9 67.3L62.9 69.8Q62.4 70 62 70.1Q61.5 70.2 61 70.2ZM62.8 60L59.7 60L59.7 57.8L62.8 57.8L62.8 60ZM68.1 70L65.4 70L65.4 52.8L68.1 52.8L68.1 70ZM77.1 62.5L66.9 62.5L66.9 60L77.1 60L77.1 62.5ZM78.7 70L76.1 70L76.1 52.8L78.7 52.8L78.7 70ZM86.3 70.4L86.3 70.4Q84 70.4 82.9 69Q81.7 67.7 81.7 65.3L81.7 65.3L81.7 57.8L84.3 57.8L84.3 65Q84.3 66.5 85.1 67.3Q85.8 68 86.9 68L86.9 68Q87.9 68 88.6 67.5Q89.4 67 89.7 66.1Q90.1 65.3 90.1 64.3L90.1 64.3L90.1 57.8L92.7 57.8L92.7 70L90.3 70L90.3 68.3L90.1 68.3Q89.8 68.9 89.2 69.4Q88.6 69.8 87.9 70.1Q87.1 70.4 86.3 70.4ZM101.9 70.4L101.9 70.4Q101 70.4 100.2 70.1Q99.5 69.8 98.9 69.3Q98.3 68.9 98 68.4L98 68.4L97.9 68.4L97.9 70L95.4 70L95.4 52.8L98 52.8L98 57.7L97.9 59.4L98 59.4Q98.3 58.9 98.9 58.4Q99.5 58 100.2 57.7Q101 57.4 101.9 57.4L101.9 57.4Q103.6 57.4 104.9 58.2Q106.3 59.1 107 60.5Q107.8 62 107.8 63.9L107.8 63.9Q107.8 65.8 107 67.2Q106.3 68.7 104.9 69.5Q103.6 70.4 101.9 70.4ZM101.6 68L101.6 68Q102.5 68 103.4 67.5Q104.2 67 104.7 66.1Q105.3 65.1 105.3 63.9L105.3 63.9Q105.3 62.6 104.7 61.7Q104.2 60.8 103.4 60.3Q102.5 59.8 101.6 59.8L101.6 59.8Q100.6 59.8 99.8 60.3Q98.9 60.8 98.4 61.7Q97.9 62.6 97.9 63.9L97.9 63.9Q97.9 65.2 98.4 66.1Q98.9 67 99.8 67.5Q100.6 68 101.6 68Z" fill="#14233C"/><path d="M34.6 101.7L34.6 101.7Q33.5 101.7 32.8 101.4Q32 101 31.6 100.5Q31.1 100 30.9 99.4L30.9 99.4L32.2 98.9Q32.4 99.6 33.1 100Q33.7 100.5 34.6 100.5L34.6 100.5Q35.9 100.5 36.5 99.7Q37.2 99 37.2 97.7L37.2 97.7L37.2 96.8L37.2 96.8Q36.8 97.3 36.1 97.8Q35.3 98.2 34.4 98.2L34.4 98.2Q33.3 98.2 32.5 97.6Q31.6 97.1 31.1 96.1Q30.6 95.1 30.6 93.9L30.6 93.9Q30.6 92.6 31.1 91.6Q31.6 90.7 32.5 90.1Q33.3 89.6 34.4 89.6L34.4 89.6Q35.3 89.6 36.1 90Q36.8 90.4 37.2 91L37.2 91L37.2 91L37.2 89.8L38.5 89.8L38.5 97.7Q38.5 99 38 99.9Q37.5 100.8 36.6 101.3Q35.7 101.7 34.6 101.7ZM34.6 96.9L34.6 96.9Q35.3 96.9 35.9 96.6Q36.5 96.2 36.9 95.5Q37.2 94.8 37.2 93.9L37.2 93.9Q37.2 92.9 36.9 92.2Q36.5 91.5 35.9 91.2Q35.3 90.8 34.6 90.8L34.6 90.8Q33.9 90.8 33.2 91.2Q32.6 91.5 32.3 92.2Q31.9 92.9 31.9 93.9L31.9 93.9Q31.9 94.8 32.3 95.5Q32.6 96.2 33.2 96.6Q33.9 96.9 34.6 96.9ZM41.9 98L40.5 98L40.5 89.8L41.9 89.8L41.9 98ZM41.2 88.3L41.2 88.3Q40.8 88.3 40.5 88Q40.2 87.8 40.2 87.4L40.2 87.4Q40.2 86.9 40.5 86.7Q40.8 86.4 41.2 86.4L41.2 86.4Q41.6 86.4 41.9 86.7Q42.2 86.9 42.2 87.4L42.2 87.4Q42.2 87.8 41.9 88Q41.6 88.3 41.2 88.3ZM44.8 91.1L43.3 91.1L43.3 89.8L44.8 89.8L44.8 91.1ZM47 98.1L47 98.1Q46 98.1 45.3 97.5Q44.7 96.9 44.7 95.9L44.7 95.9L44.7 87.5L46.1 87.5L46.1 95.5Q46.1 96.2 46.3 96.5Q46.6 96.9 47.2 96.9L47.2 96.9Q47.4 96.9 47.7 96.8Q47.9 96.7 48.1 96.6L48.1 96.6L48.1 97.9Q47.8 98 47.6 98.1Q47.3 98.1 47 98.1ZM48.1 91.1L46 91.1L46 89.8L48.1 89.8L48.1 91.1ZM51 98L49.7 98L49.7 86.5L51 86.5L51 89.9L51 91L51 91Q51.4 90.4 52.1 90Q52.8 89.6 53.7 89.6L53.7 89.6Q54.7 89.6 55.4 90Q56.1 90.4 56.4 91.1Q56.8 91.8 56.8 92.8L56.8 92.8L56.8 98L55.4 98L55.4 93Q55.4 92.2 55.1 91.7Q54.8 91.2 54.4 91Q53.9 90.8 53.4 90.8L53.4 90.8Q52.7 90.8 52.2 91.2Q51.6 91.6 51.3 92.2Q51 92.8 51 93.5L51 93.5L51 98ZM61.6 98.3L61.6 98.3Q60.1 98.3 59.4 97.4Q58.6 96.5 58.6 95L58.6 95L58.6 89.8L60 89.8L60 94.8Q60 96 60.5 96.5Q61.1 97 61.9 97L61.9 97Q62.6 97 63.2 96.6Q63.7 96.3 64 95.7Q64.3 95.1 64.3 94.4L64.3 94.4L64.3 89.8L65.6 89.8L65.6 98L64.3 98L64.3 96.8L64.3 96.8Q64.1 97.2 63.7 97.5Q63.2 97.9 62.7 98.1Q62.2 98.3 61.6 98.3ZM71.8 98.3L71.8 98.3Q71.1 98.3 70.6 98Q70 97.8 69.6 97.5Q69.2 97.2 69 96.8L69 96.8L68.9 96.8L68.9 98L67.6 98L67.6 86.5L69 86.5L69 89.9L68.9 91.1L69 91.1Q69.2 90.7 69.6 90.3Q70 90 70.6 89.8Q71.1 89.6 71.8 89.6L71.8 89.6Q72.9 89.6 73.8 90.1Q74.6 90.7 75.2 91.7Q75.7 92.7 75.7 93.9L75.7 93.9Q75.7 95.2 75.2 96.2Q74.6 97.1 73.8 97.7Q72.9 98.3 71.8 98.3ZM71.6 97L71.6 97Q72.3 97 72.9 96.6Q73.6 96.3 73.9 95.6Q74.3 94.9 74.3 93.9L74.3 93.9Q74.3 93 73.9 92.3Q73.6 91.6 72.9 91.2Q72.3 90.8 71.6 90.8L71.6 90.8Q70.9 90.8 70.3 91.2Q69.7 91.6 69.3 92.3Q68.9 93 68.9 93.9L68.9 93.9Q68.9 94.9 69.3 95.6Q69.7 96.3 70.3 96.6Q70.9 97 71.6 97ZM78.1 98.1L78.1 98.1Q77.7 98.1 77.4 97.8Q77.1 97.5 77.1 97.1L77.1 97.1Q77.1 96.7 77.4 96.4Q77.7 96.1 78.1 96.1L78.1 96.1Q78.5 96.1 78.8 96.4Q79.1 96.7 79.1 97.1L79.1 97.1Q79.1 97.5 78.8 97.8Q78.5 98.1 78.1 98.1ZM84.7 98.3L84.7 98.3Q83.5 98.3 82.6 97.7Q81.6 97.1 81.1 96.1Q80.6 95.2 80.6 93.9L80.6 93.9Q80.6 92.7 81.1 91.7Q81.6 90.7 82.6 90.2Q83.5 89.6 84.7 89.6L84.7 89.6Q86.1 89.6 87 90.2Q87.8 90.8 88.2 91.8L88.2 91.8L87 92.4Q86.7 91.6 86.1 91.2Q85.5 90.8 84.6 90.8L84.6 90.8Q83.9 90.8 83.3 91.2Q82.7 91.6 82.3 92.3Q81.9 93 81.9 93.9L81.9 93.9Q81.9 94.8 82.3 95.6Q82.7 96.3 83.3 96.6Q83.9 97 84.6 97L84.6 97Q85.5 97 86.1 96.6Q86.7 96.2 87 95.5L87 95.5L88.3 96Q87.9 96.9 87 97.6Q86.1 98.3 84.7 98.3ZM93.4 98.3L93.4 98.3Q92.2 98.3 91.2 97.7Q90.3 97.1 89.7 96.1Q89.2 95.1 89.2 93.9L89.2 93.9Q89.2 92.7 89.7 91.7Q90.3 90.7 91.2 90.2Q92.2 89.6 93.4 89.6L93.4 89.6Q94.6 89.6 95.6 90.2Q96.5 90.8 97 91.7Q97.6 92.7 97.6 93.9L97.6 93.9Q97.6 95.1 97 96.1Q96.5 97.1 95.6 97.7Q94.6 98.3 93.4 98.3ZM93.4 97L93.4 97Q94.1 97 94.8 96.7Q95.4 96.3 95.8 95.6Q96.2 94.9 96.2 93.9L96.2 93.9Q96.2 92.9 95.8 92.2Q95.4 91.6 94.8 91.2Q94.1 90.8 93.4 90.8L93.4 90.8Q92.7 90.8 92 91.2Q91.3 91.6 90.9 92.2Q90.5 92.9 90.5 93.9L90.5 93.9Q90.5 94.9 90.9 95.6Q91.3 96.3 92 96.7Q92.7 97 93.4 97ZM100.5 98L99.1 98L99.1 89.8L100.4 89.8L100.4 91L100.5 91Q100.7 90.6 101.1 90.3Q101.5 90 102 89.8Q102.5 89.6 103 89.6L103 89.6Q104 89.6 104.6 90Q105.3 90.5 105.6 91.2L105.6 91.2Q106 90.5 106.7 90Q107.4 89.6 108.4 89.6L108.4 89.6Q109.8 89.6 110.5 90.5Q111.2 91.3 111.2 92.8L111.2 92.8L111.2 98L109.8 98L109.8 93Q109.8 91.8 109.4 91.3Q108.9 90.8 108 90.8L108 90.8Q107.4 90.8 106.9 91.2Q106.4 91.5 106.1 92.1Q105.8 92.7 105.8 93.4L105.8 93.4L105.8 98L104.5 98L104.5 93Q104.5 91.8 104 91.3Q103.5 90.8 102.7 90.8L102.7 90.8Q102 90.8 101.5 91.2Q101.1 91.6 100.8 92.1Q100.5 92.7 100.5 93.4L100.5 93.4L100.5 98ZM113.4 98L112.1 98L115.6 86.5L116.9 86.5L113.4 98ZM118.8 91.1L117.3 91.1L117.3 89.8L118.8 89.8L118.8 91.1ZM121 98.1L121 98.1Q120 98.1 119.4 97.5Q118.8 96.9 118.8 95.9L118.8 95.9L118.8 87.5L120.1 87.5L120.1 95.5Q120.1 96.2 120.4 96.5Q120.7 96.9 121.2 96.9L121.2 96.9Q121.5 96.9 121.7 96.8Q121.9 96.7 122.1 96.6L122.1 96.6L122.1 97.9Q121.9 98 121.6 98.1Q121.3 98.1 121 98.1ZM122.1 91.1L120 91.1L120 89.8L122.1 89.8L122.1 91.1ZM126.4 98.3L126.4 98.3Q125.5 98.3 124.8 97.9Q124.1 97.6 123.7 96.9Q123.3 96.3 123.3 95.5L123.3 95.5Q123.3 94.6 123.8 94Q124.2 93.4 125 93.1Q125.8 92.8 126.7 92.8L126.7 92.8Q127.3 92.8 127.7 92.9Q128.2 93 128.6 93.1Q128.9 93.2 129.1 93.3L129.1 93.3L129.1 92.8Q129.1 91.9 128.4 91.3Q127.8 90.8 126.8 90.8L126.8 90.8Q126.1 90.8 125.6 91.1Q125 91.4 124.6 91.9L124.6 91.9L123.6 91.2Q123.9 90.7 124.4 90.3Q124.9 90 125.5 89.8Q126.1 89.6 126.8 89.6L126.8 89.6Q128.5 89.6 129.4 90.5Q130.4 91.3 130.4 92.8L130.4 92.8L130.4 98L129.1 98L129.1 96.8L129 96.8Q128.8 97.2 128.4 97.5Q128 97.8 127.5 98Q127 98.3 126.4 98.3ZM126.5 97.1L126.5 97.1Q127.2 97.1 127.8 96.7Q128.4 96.4 128.7 95.8Q129.1 95.2 129.1 94.5L129.1 94.5Q128.7 94.2 128.2 94Q127.6 93.9 126.9 93.9L126.9 93.9Q125.8 93.9 125.2 94.4Q124.7 94.8 124.7 95.6L124.7 95.6Q124.7 96.2 125.2 96.6Q125.7 97.1 126.5 97.1ZM133.2 91.1L131.6 91.1L131.6 89.8L133.2 89.8L133.2 91.1ZM134.5 98L133.1 98L133.1 89Q133.1 88.2 133.5 87.6Q133.8 87.1 134.4 86.7Q135 86.4 135.8 86.4L135.8 86.4Q136.1 86.4 136.4 86.5Q136.7 86.5 136.9 86.6L136.9 86.6L136.9 87.9Q136.6 87.8 136.3 87.7Q136.1 87.7 135.8 87.7L135.8 87.7Q135.2 87.7 134.9 88.1Q134.5 88.4 134.5 89.1L134.5 89.1L134.5 98ZM136.6 91.1L134.4 91.1L134.4 89.8L136.6 89.8L136.6 91.1ZM140.9 98.3L140.9 98.3Q140 98.3 139.3 98Q138.6 97.7 138.1 97.2Q137.6 96.7 137.4 96.1L137.4 96.1L138.6 95.5Q139 96.3 139.6 96.7Q140.2 97.1 141 97.1L141 97.1Q141.7 97.1 142.2 96.8Q142.7 96.4 142.7 95.9L142.7 95.9Q142.7 95.5 142.5 95.2Q142.3 95 141.9 94.8Q141.5 94.6 140.9 94.5L140.9 94.5L139.9 94.2Q139.4 94.1 138.8 93.8Q138.3 93.5 138 93Q137.7 92.6 137.7 91.9L137.7 91.9Q137.7 91.2 138.1 90.7Q138.6 90.1 139.3 89.9Q140 89.6 140.8 89.6L140.8 89.6Q141.5 89.6 142.1 89.8Q142.7 90 143.2 90.4Q143.6 90.8 143.9 91.3L143.9 91.3L142.7 91.9Q142.4 91.3 141.9 91Q141.4 90.8 140.8 90.8L140.8 90.8Q140.1 90.8 139.6 91.1Q139.1 91.4 139.1 91.9L139.1 91.9Q139.1 92.4 139.5 92.7Q139.9 92.9 140.5 93.1L140.5 93.1L141.7 93.4Q142.9 93.7 143.5 94.3Q144.1 94.9 144.1 95.8L144.1 95.8Q144.1 96.5 143.7 97.1Q143.2 97.6 142.5 98Q141.8 98.3 140.9 98.3ZM146.9 98L145.6 98L145.6 89.8L146.9 89.8L146.9 98ZM146.2 88.3L146.2 88.3Q145.8 88.3 145.5 88Q145.2 87.8 145.2 87.4L145.2 87.4Q145.2 86.9 145.5 86.7Q145.8 86.4 146.2 86.4L146.2 86.4Q146.6 86.4 146.9 86.7Q147.2 86.9 147.2 87.4L147.2 87.4Q147.2 87.8 146.9 88Q146.6 88.3 146.2 88.3ZM150.3 98L148.9 98L148.9 89.8L150.2 89.8L150.2 91.2L150.3 91.2Q150.4 90.7 150.8 90.3Q151.2 90 151.7 89.8Q152.1 89.6 152.6 89.6L152.6 89.6Q153 89.6 153.2 89.6Q153.4 89.7 153.6 89.8L153.6 89.8L153.6 91.2Q153.3 91.1 153 91Q152.7 91 152.4 91L152.4 91Q151.8 91 151.3 91.3Q150.8 91.6 150.6 92.2Q150.3 92.8 150.3 93.4L150.3 93.4L150.3 98ZM157.8 98.3L157.8 98.3Q156.3 98.3 155.5 97.4Q154.8 96.5 154.8 95L154.8 95L154.8 89.8L156.1 89.8L156.1 94.8Q156.1 96 156.7 96.5Q157.2 97 158.1 97L158.1 97Q158.8 97 159.3 96.6Q159.8 96.3 160.1 95.7Q160.4 95.1 160.4 94.4L160.4 94.4L160.4 89.8L161.8 89.8L161.8 98L160.5 98L160.5 96.8L160.4 96.8Q160.2 97.2 159.8 97.5Q159.4 97.9 158.9 98.1Q158.4 98.3 157.8 98.3ZM165.1 98L163.8 98L163.8 86.5L165.1 86.5L165.1 98ZM168.5 98L167.1 98L167.1 89.8L168.5 89.8L168.5 98ZM167.8 88.3L167.8 88.3Q167.4 88.3 167.1 88Q166.8 87.8 166.8 87.4L166.8 87.4Q166.8 86.9 167.1 86.7Q167.4 86.4 167.8 86.4L167.8 86.4Q168.2 86.4 168.5 86.7Q168.8 86.9 168.8 87.4L168.8 87.4Q168.8 87.8 168.5 88Q168.2 88.3 167.8 88.3ZM173.3 98.3L173.3 98.3Q172.4 98.3 171.7 98Q171 97.7 170.5 97.2Q170.1 96.7 169.9 96.1L169.9 96.1L171.1 95.5Q171.4 96.3 172 96.7Q172.6 97.1 173.4 97.1L173.4 97.1Q174.1 97.1 174.6 96.8Q175.2 96.4 175.2 95.9L175.2 95.9Q175.2 95.5 174.9 95.2Q174.7 95 174.3 94.8Q173.9 94.6 173.4 94.5L173.4 94.5L172.4 94.2Q171.8 94.1 171.3 93.8Q170.8 93.5 170.5 93Q170.1 92.6 170.1 91.9L170.1 91.9Q170.1 91.2 170.6 90.7Q171 90.1 171.7 89.9Q172.4 89.6 173.2 89.6L173.2 89.6Q173.9 89.6 174.5 89.8Q175.2 90 175.6 90.4Q176.1 90.8 176.3 91.3L176.3 91.3L175.1 91.9Q174.8 91.3 174.3 91Q173.8 90.8 173.2 90.8L173.2 90.8Q172.5 90.8 172 91.1Q171.5 91.4 171.5 91.9L171.5 91.9Q171.5 92.4 171.9 92.7Q172.3 92.9 172.9 93.1L172.9 93.1L174.1 93.4Q175.3 93.7 175.9 94.3Q176.5 94.9 176.5 95.8L176.5 95.8Q176.5 96.5 176.1 97.1Q175.7 97.6 174.9 98Q174.2 98.3 173.3 98.3ZM179.3 98L178 98L178 86.5L179.3 86.5L179.3 98ZM184 98.3L184 98.3Q183.1 98.3 182.4 97.9Q181.7 97.6 181.3 96.9Q180.9 96.3 180.9 95.5L180.9 95.5Q180.9 94.6 181.4 94Q181.8 93.4 182.6 93.1Q183.4 92.8 184.3 92.8L184.3 92.8Q184.9 92.8 185.3 92.9Q185.8 93 186.2 93.1Q186.5 93.2 186.7 93.3L186.7 93.3L186.7 92.8Q186.7 91.9 186 91.3Q185.4 90.8 184.4 90.8L184.4 90.8Q183.7 90.8 183.2 91.1Q182.6 91.4 182.2 91.9L182.2 91.9L181.2 91.2Q181.5 90.7 182 90.3Q182.5 90 183.1 89.8Q183.7 89.6 184.4 89.6L184.4 89.6Q186.1 89.6 187 90.5Q188 91.3 188 92.8L188 92.8L188 98L186.7 98L186.7 96.8L186.6 96.8Q186.4 97.2 186 97.5Q185.6 97.8 185.1 98Q184.6 98.3 184 98.3ZM184.1 97.1L184.1 97.1Q184.8 97.1 185.4 96.7Q186 96.4 186.3 95.8Q186.7 95.2 186.7 94.5L186.7 94.5Q186.3 94.2 185.8 94Q185.2 93.9 184.5 93.9L184.5 93.9Q183.4 93.9 182.8 94.4Q182.3 94.8 182.3 95.6L182.3 95.6Q182.3 96.2 182.8 96.6Q183.3 97.1 184.1 97.1ZM191.2 98L189.8 98L189.8 89.8L191.1 89.8L191.1 91L191.2 91Q191.4 90.6 191.8 90.3Q192.2 90 192.7 89.8Q193.2 89.6 193.7 89.6L193.7 89.6Q194.6 89.6 195.3 90Q196 90.5 196.2 91.2L196.2 91.2Q196.7 90.5 197.4 90Q198.1 89.6 199 89.6L199 89.6Q200.5 89.6 201.2 90.5Q201.9 91.3 201.9 92.8L201.9 92.8L201.9 98L200.5 98L200.5 93Q200.5 91.8 200 91.3Q199.6 90.8 198.7 90.8L198.7 90.8Q198.1 90.8 197.6 91.2Q197.1 91.5 196.8 92.1Q196.5 92.7 196.5 93.4L196.5 93.4L196.5 98L195.2 98L195.2 93Q195.2 91.8 194.7 91.3Q194.2 90.8 193.3 90.8L193.3 90.8Q192.7 90.8 192.2 91.2Q191.7 91.6 191.5 92.1Q191.2 92.7 191.2 93.4L191.2 93.4L191.2 98ZM206.4 98.3L206.4 98.3Q205.5 98.3 204.8 97.9Q204.1 97.6 203.8 96.9Q203.4 96.3 203.4 95.5L203.4 95.5Q203.4 94.6 203.8 94Q204.3 93.4 205.1 93.1Q205.9 92.8 206.8 92.8L206.8 92.8Q207.3 92.8 207.8 92.9Q208.3 93 208.6 93.1Q209 93.2 209.1 93.3L209.1 93.3L209.1 92.8Q209.1 91.9 208.5 91.3Q207.8 90.8 206.9 90.8L206.9 90.8Q206.2 90.8 205.6 91.1Q205 91.4 204.7 91.9L204.7 91.9L203.7 91.2Q204 90.7 204.5 90.3Q205 90 205.6 89.8Q206.2 89.6 206.9 89.6L206.9 89.6Q208.5 89.6 209.5 90.5Q210.4 91.3 210.4 92.8L210.4 92.8L210.4 98L209.1 98L209.1 96.8L209.1 96.8Q208.9 97.2 208.5 97.5Q208.1 97.8 207.6 98Q207.1 98.3 206.4 98.3ZM206.6 97.1L206.6 97.1Q207.3 97.1 207.8 96.7Q208.4 96.4 208.8 95.8Q209.1 95.2 209.1 94.5L209.1 94.5Q208.8 94.2 208.2 94Q207.7 93.9 207 93.9L207 93.9Q205.8 93.9 205.3 94.4Q204.8 94.8 204.8 95.6L204.8 95.6Q204.8 96.2 205.3 96.6Q205.8 97.1 206.6 97.1ZM213.6 101.5L212.3 101.5L212.3 89.8L213.6 89.8L213.6 91.1L213.6 91.1Q213.9 90.7 214.3 90.3Q214.7 90 215.2 89.8Q215.8 89.6 216.4 89.6L216.4 89.6Q217.6 89.6 218.4 90.1Q219.3 90.7 219.8 91.7Q220.3 92.7 220.3 93.9L220.3 93.9Q220.3 95.2 219.8 96.2Q219.3 97.1 218.4 97.7Q217.6 98.3 216.4 98.3L216.4 98.3Q215.5 98.3 214.7 97.8Q214 97.4 213.6 96.8L213.6 96.8L213.6 96.8L213.6 97.9L213.6 101.5ZM216.3 97L216.3 97Q217 97 217.6 96.6Q218.2 96.3 218.6 95.6Q219 94.9 219 93.9L219 93.9Q219 93 218.6 92.3Q218.2 91.6 217.6 91.2Q217 90.8 216.3 90.8L216.3 90.8Q215.6 90.8 215 91.2Q214.4 91.6 214 92.3Q213.6 93 213.6 93.9L213.6 93.9Q213.6 94.9 214 95.6Q214.4 96.3 215 96.6Q215.6 97 216.3 97ZM225.6 98.3L225.6 98.3Q224.4 98.3 223.5 97.7Q222.5 97.1 222 96.1Q221.5 95.1 221.5 93.9L221.5 93.9Q221.5 92.7 222 91.7Q222.5 90.7 223.5 90.2Q224.4 89.6 225.6 89.6L225.6 89.6Q226.9 89.6 227.8 90.2Q228.8 90.8 229.3 91.7Q229.8 92.7 229.8 93.9L229.8 93.9Q229.8 95.1 229.3 96.1Q228.8 97.1 227.8 97.7Q226.9 98.3 225.6 98.3ZM225.6 97L225.6 97Q226.4 97 227 96.7Q227.7 96.3 228.1 95.6Q228.5 94.9 228.5 93.9L228.5 93.9Q228.5 92.9 228.1 92.2Q227.7 91.6 227 91.2Q226.4 90.8 225.6 90.8L225.6 90.8Q224.9 90.8 224.3 91.2Q223.6 91.6 223.2 92.2Q222.8 92.9 222.8 93.9L222.8 93.9Q222.8 94.9 223.2 95.6Q223.6 96.3 224.3 96.7Q224.9 97 225.6 97ZM232.8 98L231.4 98L231.4 89.8L232.7 89.8L232.7 91L232.8 91Q233.1 90.4 233.8 90Q234.5 89.6 235.4 89.6L235.4 89.6Q236.9 89.6 237.7 90.5Q238.4 91.3 238.4 92.8L238.4 92.8L238.4 98L237.1 98L237.1 93Q237.1 91.8 236.5 91.3Q235.9 90.8 235 90.8L235 90.8Q234.4 90.8 233.8 91.2Q233.3 91.6 233 92.2Q232.8 92.8 232.8 93.4L232.8 93.4L232.8 98Z" fill="#667085"/><g stroke="#2F5FA7" stroke-width="2.2" stroke-linecap="round" stroke-linejoin="round" fill="none"><line x1="264" y1="68" x2="282" y2="68"/><polyline points="275,61 282,68 275,75"/></g>
</svg>